<?xml version="1.0" standalone="no"?><svg xmlns="http://www.w3.org/2000/svg" width="682.667" height="682.667" version="1.0" viewBox="0 0 512 512"><g fill="#202046"><path d="M329.5 17.4c-9.4 4.1-12.4 16.8-5.8 24.7 5.1 6 4.1 5.9 63.5 5.9h54.3L325.3 164.2c-126.4 126.5-118.6 118-116.8 127.5.9 4.9 6.9 10.9 11.8 11.8 9.5 1.8 1 9.6 127.4-116.8L464 70.6l.2 55.6c.3 54.4.3 55.7 2.4 58.4 3.9 5.3 7.1 6.9 13.4 6.9 6.3 0 9.5-1.6 13.4-6.9 2.1-2.7 2.1-3.5 2.1-80.6s0-77.9-2.1-80.6c-1.1-1.5-3.3-3.7-4.8-4.8-2.7-2.1-3.7-2.1-79.4-2.3-62.2-.2-77.3 0-79.7 1.1z"/><path d="M52.1 81.6c-16.9 4.5-30.1 18-34.6 35.1-2.3 8.6-2.3 334 0 342.6 4.5 17.3 17.8 30.7 35 35.2 5.2 1.3 26 1.5 171.5 1.5 180.5 0 170.5.3 182.2-5.6 11.6-5.9 22.1-19.7 24.7-32.6.8-3.7 1.1-36.4.9-106.5-.3-100.4-.3-101.2-2.4-103.9-3.9-5.3-7.1-6.9-13.4-6.9-6.3 0-9.5 1.6-13.4 6.9-2.1 2.7-2.1 3.7-2.6 104.6-.5 100.9-.5 101.9-2.6 104.6-1.1 1.5-3.3 3.7-4.8 4.8l-2.7 2.1H58.1l-2.7-2.1c-1.5-1.1-3.7-3.3-4.8-4.8l-2.1-2.7V122.1l2.1-2.7c1.1-1.5 3.3-3.7 4.8-4.8 2.7-2.1 3.7-2.1 104.6-2.6 100.9-.5 101.9-.5 104.6-2.6 5.3-3.9 6.9-7.1 6.9-13.4 0-6.3-1.6-9.5-6.9-13.4-2.7-2.1-3.4-2.1-104.9-2.3-86.8-.2-103 0-107.6 1.3z"/></g></svg>