<svg xmlns="http://www.w3.org/2000/svg" version="1.1" xmlns:xlink="http://www.w3.org/1999/xlink" xmlns:svgjs="http://svgjs.dev/svgjs" width="2000" height="2250" viewBox="0 0 2000 2250"><g transform="matrix(1,0,0,1,3.410605131648481e-13,0)"><svg viewBox="0 0 320 360" data-background-color="#ffffff" preserveAspectRatio="xMidYMid meet" height="2250" width="2000" xmlns="http://www.w3.org/2000/svg" xmlns:xlink="http://www.w3.org/1999/xlink"><g id="tight-bounds" transform="matrix(1,0,0,1,0,0)"><svg viewBox="0 0 320 360" height="360" width="320"><g><svg></svg></g><g><svg viewBox="0 0 320 360" height="360" width="320"><g><path xmlns="http://www.w3.org/2000/svg" d="M20.961 227.22l3.726 4.658-1.863-6.056c-0.466-2.795-3.726 0.466-1.863 1.398M25.153 224.425c1.397 2.329 2.795 4.658 2.795 6.987 0 3.261 2.795 4.658 5.123 5.589-3.261-3.726-5.124-13.974-7.918-12.576M204.017 26.929c7.918 0 15.371-0.932 23.756 0.931 20.495 5.124 37.729 15.371 49.374 29.811l32.606 52.169c1.397 13.042 4.192 27.482 3.726 43.319 3.261 0 2.795-4.658 6.521-5.59-3.726 9.316-5.59 20.961-6.521 34.469-2.329-7.453 0-18.632 0.466-24.687-3.261 5.124-5.124 1.397-5.124-0.932 0.466-3.726-1.397-3.261-2.795-4.658-5.124-4.658-8.384-9.782-12.11-17.7 2.329-6.055 2.795-14.905-4.658-19.563-2.329-1.397-5.124-3.726-6.521-7.453-1.863-5.124-5.124-11.179-4.193-19.097 0.466-2.329-6.987 5.124-11.179 1.863-18.166-12.576-36.332-27.016-58.224-39.127-11.645 0-20.029-4.192-24.221-9.316-3.726-4.658-0.932-10.713 4.658-11.179 3.261 0 6.987-0.932 9.782 0.932 0.466-1.863 2.329-4.192 4.657-4.192M157.904 16.215l0.932 0.466c4.658 0.932 6.987 7.453 12.11 5.124 0 3.261 0.466 6.521-0.466 8.85-1.397 3.726-5.59 3.726-8.85 3.726-31.208-1.863-49.374 11.179-68.471 22.358-5.124 3.261-10.713 5.59-14.906 9.782-20.029 18.632-41.921 35.866-47.045 70.335l-4.192 38.195c-0.466 4.192-5.124 8.384-4.192 13.508l3.26 22.824c-3.261-3.261-5.124 0.932-4.192 2.795 0.466 1.397 2.329 6.055 5.124 1.863 3.726 6.987 7.453 20.495 12.576 26.55 15.837 18.632 36.332 35.4 53.101 52.169 4.192-0.932 7.453-0.932 8.384-3.727 1.397 2.795-1.397 5.59-3.726 6.056 7.453 4.658 15.837 8.85 27.016 9.781 14.44 0.932 27.948 3.261 40.524 6.522 6.521-1.863 13.042-2.795 20.029-3.261 2.329 0 3.726-3.726 6.521-4.658l0.466-4.658c2.795 4.192 2.329-1.397 0.466-4.192 3.261 2.795 4.192 5.124 5.589 6.987 0-1.397 3.726-6.521 3.727-0.466l0.931-6.055c1.397-0.932 1.863 5.124 3.261 0.931 1.397-4.192 4.192-0.932 6.987-2.329-0.932 1.863-0.466 5.59 2.794 3.261l3.727-3.261c2.329 5.59 6.055 3.261 7.918 2.329 20.495-13.042 40.99-28.413 60.553-43.784l-0.466 6.055 2.329-7.453c2.329 2.329 4.192 0.466 5.124-0.931 2.795-4.658 6.521-9.316 12.577-13.508-7.453 20.029-16.303 35.866-27.482 48.908l-4.658 5.59c0 3.261-0.932 7.453-4.658 7.918-1.863 0.466-5.59-0.932-8.384 1.863-1.397 1.863 3.261 5.59-0.466 2.795-3.261-2.329-6.521 0-10.248 0.932-2.795 0.932 1.863 3.726 2.795 5.589 0.932 1.863 1.863 3.726 1.398 6.056l-5.124-5.59c-6.055 3.261-9.782 9.316-14.906 13.974-2.329 1.863-1.397 5.124-1.397 7.918-3.261 0-6.987-0.932-8.85 0.932-1.397 1.863-0.932 4.658-0.932 7.453-4.658-0.466-5.124-7.453-9.315-6.056-4.192 0.932-8.85 1.397-12.577 3.727 2.795 5.59-4.658 2.329-3.726 3.26-6.987-4.192-13.042-7.453-20.495-4.658-15.837-5.124-35.4-2.795-49.84-0.931 0-2.329 0.466-4.658-0.466-5.124-0.932 2.329-3.726 1.397-3.26 1.397-8.85-6.055-17.7-9.782-27.016-14.905-8.384 0.932-16.303-3.261-18.632-5.59-6.521-6.055-13.974-2.795-20.029-4.192-13.042-3.261-17.7-16.769-19.098-26.084-0.932-4.658-4.658-6.521-6.055-6.056-6.055-19.563-15.371-37.263-22.824-55.429-1.863-4.658-1.397-9.316-1.397-14.44 2.329 0.932 4.658 0.466 4.192-2.794-2.329-15.371-7.918-27.016-13.974-38.195 3.261-15.837 3.726-34.469 11.179-48.443 6.521-12.576 18.632-19.098 27.016-29.811 2.795-3.726 2.795-8.85 5.59-12.11 9.316-9.316 18.632-19.098 28.879-27.482 4.658-3.726 10.247 0 17.234-1.397 2.329-8.384 11.645-15.837 20.495-13.508 3.726 0.932 11.179-8.85 13.508-9.782 3.726-1.397 1.863 3.726 1.863 6.987 8.85-6.987 20.961-10.713 32.14-14.906" fill="#202046" fill-rule="nonzero" stroke="none" stroke-width="1" stroke-linecap="butt" stroke-linejoin="miter" stroke-miterlimit="10" stroke-dasharray="" stroke-dashoffset="0" font-family="none" font-weight="none" font-size="none" text-anchor="none" style="mix-blend-mode: normal" data-fill-palette-color="tertiary"></path></g><g transform="matrix(1,0,0,1,108.50941958507244,90)"><svg viewBox="0 0 102.98116082985511 180" height="180" width="102.98116082985511"><g><svg viewBox="0 0 102.98116082985511 180" height="180" width="102.98116082985511"><g><svg viewBox="0 0 178.1491002570694 311.3854785464415" height="180" width="102.98116082985511"><g transform="matrix(1,0,0,1,0,131.38547854644148)"><svg viewBox="0 0 178.1491002570694 180" height="180" width="178.1491002570694"><g><svg viewBox="0 0 178.1491002570694 180" height="180" width="178.1491002570694"><g><svg viewBox="0 0 178.1491002570694 180" height="180" width="178.1491002570694"><g transform="matrix(1,0,0,1,0,0)"><svg width="178.1491002570694" viewBox="1 -38.900001525878906 38.5 38.900001525878906" height="180" data-palette-color="#202046"><path d="M1 0L1-8.2 3.5-8.2 3.5-30.65 1-30.65 1-38.9 21.3-38.9Q29.65-38.9 34.58-34.33 39.5-29.75 39.5-19.45L39.5-19.45Q39.5-9.15 34.58-4.58 29.65 0 21.3 0L21.3 0 1 0ZM17.5-8.2L20.4-8.2Q22.1-8.2 22.95-9.1 23.8-10 23.8-11.9L23.8-11.9 23.8-27Q23.8-30.7 20.4-30.7L20.4-30.7 17.5-30.7 17.5-8.2Z" opacity="1" transform="matrix(1,0,0,1,0,0)" fill="#202046" class="undefined-text-0" data-fill-palette-color="primary" id="text-0"></path></svg></g></svg></g></svg></g></svg></g><g transform="matrix(1,0,0,1,34.02647814910026,0)"><svg viewBox="0 0 110.09614395886888 105.11915854644148" height="105.11915854644148" width="110.09614395886888"><g><svg xmlns="http://www.w3.org/2000/svg" xmlns:xlink="http://www.w3.org/1999/xlink" xml:space="preserve" version="1.1" style="shape-rendering:geometricPrecision;text-rendering:geometricPrecision;image-rendering:optimizeQuality;" viewBox="9.014404296875 10.865238189697266 81.97439575195312 78.2686767578125" x="0" y="0" fill-rule="evenodd" clip-rule="evenodd" height="105.11915854644148" width="110.09614395886888" class="icon-icon-0" data-fill-palette-color="accent" id="icon-0"><g fill="#fe633d" data-fill-palette-color="accent"><path class="" d="M17.87 39.75c-8.02-19.9 11.71-19.68 26.35-24.23 2.75-0.86 23.14-12.55 14.52 4.76-0.32 0.64-0.67 1.24-1.05 1.78 13.31-3.14 21.79-8.92 14.85 6.31 11.22 10.02 25.41 19.03 14.58 37.9-15.25 26.57-47.89 30.35-70.2 9.41-11.49-10.8-10.67-28.52 3.87-33.44 0.17-0.04 0.34-0.07 0.51-0.07 1.1-0.04 2.11 0.69 2.4 1.79 0.33 1.28-0.44 2.59-1.72 2.91-1.84 0.62-3.16 1.2-4.49 2.71-14.71 16.69 13.31 32.19 28.16 34.28 24.05 3.37 53.07-23.59 33.24-44.33-15.31-16.02-12.56-3.56-9.13-15.64-2.75 1.02-4.4 1.57-8.79 2.54-21.29 4.72-10.08-2.14-6.49-9.73l-9.09 3.45c-13.09 4.12-29.12 2.97-23.26 17.43 0.57 1.12 0.18 2.48-0.88 3.12l-0.16 0.1c-1.18 0.6-2.62 0.13-3.22-1.05z m14.66 20.52c5.14-0.96 17.25-3.39 21.5-2.59l-0.23 0.03c1.31-0.11 2.47 0.87 2.58 2.19 0.11 1.31-0.87 2.47-2.19 2.58-6.04-0.57-13.38 1.08-19.53 2.24 10.67 16.36 41.04 1.76 34.83-15.64-0.07-0.17-0.12-0.34-0.15-0.51-0.21-1.08 0.35-2.19 1.39-2.64 1.22-0.53 2.62 0.03 3.15 1.24 9.73 27.31-43.28 46.4-47.38 7.09-0.05-0.19-0.07-0.38-0.07-0.57l0-0.01 0-0.04 0-0.02 0.01-0.03 0-0.03 0-0.03 0-0.03 0-0.03 0.01-0.03 0-0.03 0-0.03 0.01-0.02 0-0.04 0.01-0.02 0-0.04 0.01-0.02 0.01-0.04 0-0.01 0.01-0.05 0.03-0.11 0-0.01c0.02-0.07 0.05-0.14 0.08-0.21l0 0 0.02-0.06 0.02-0.05 0 0 0.03-0.05 0 0 0.02-0.05 0-0.01 0.03-0.04 0-0.01 0.03-0.04 0.03-0.05 0-0.01 0.03-0.04 0 0 0.03-0.05 0 0 0.04-0.05 0.03-0.05 0.04-0.04 0 0 0.03-0.05 0.01 0 0.03-0.04 0 0 0.04-0.04 0 0 0.04-0.04 0-0.01 0.04-0.03 0.01-0.01 0.03-0.03 0.01-0.01 0.03-0.03 0.01-0.01 0.04-0.03 0.01-0.01 0.03-0.03 0.02-0.01 0.03-0.02 0.01-0.01 0.03-0.03 0.02-0.01c0.16-0.11 0.33-0.2 0.51-0.28 13.48-6.55 20.64-4.53 35.23-6.32 1.13-0.14 0.9-0.13 1.76-0.11 1.32 0 2.39 1.07 2.39 2.39 0 1.32-1.07 2.39-2.39 2.39l-0.6-0.01 0.12-0.06c-9.72 1.43-14.64 0.8-19.79 1.31-1.58 0.16-3.18 0.43-4.95 0.9-2.37 0.62-5.03 1.6-8.34 3.16 0.25 1.89 0.64 3.6 1.16 5.14z m3.31-21.61c1.16 0.79 1.66 1.62 1.64 2.82 0.02 0.12 0.04 0.24 0.05 0.36 0.12 1.31-0.85 2.48-2.16 2.59-1.61 0.02-2.69-0.97-2.73-2.4-0.47-0.73-0.52-1.68-0.06-2.49 0.66-1.14 2.12-1.54 3.26-0.88z m25.45-1.18c-0.02 1.03 0.06 1.5-0.51 2.3-0.43 1.23-1.77 1.89-3.01 1.48-1.25-0.42-1.93-1.77-1.51-3.03 0.11-0.28 0.18-0.47 0.25-0.62l0-0.13c0-1.32 1.07-2.39 2.39-2.39 1.32 0 2.39 1.07 2.39 2.39z m-0.59 2.41l-0.09 0.12c0.06-0.07 0.07-0.08 0.09-0.12z" fill="#fe633d" data-fill-palette-color="accent"></path></g></svg></g></svg></g><g></g></svg></g></svg></g></svg></g></svg></g><defs></defs></svg><rect width="320" height="360" fill="none" stroke="none" visibility="hidden"></rect></g></svg></g></svg>